<svg width="80" height="80" viewBox="0 0 80 80" fill="none" xmlns="http://www.w3.org/2000/svg">
<g clip-path="url(#clip0_7_2)">
<rect width="80" height="80" fill="white"/>
<path d="M22.0894 56.72C21.4707 56.72 20.9267 56.6773 20.4574 56.592C19.988 56.528 19.5827 56.4533 19.2414 56.368V52.336C19.5827 52.4213 19.9454 52.496 20.3294 52.56C20.692 52.624 21.0867 52.656 21.5134 52.656C22.068 52.656 22.5694 52.5493 23.0174 52.336C23.4867 52.1227 23.8494 51.7173 24.1054 51.12C24.3614 50.5227 24.4894 49.6693 24.4894 48.56V27.152H29.3214V48.528C29.3214 50.4907 29.012 52.0693 28.3934 53.264C27.796 54.48 26.9534 55.3547 25.8654 55.888C24.7774 56.4427 23.5187 56.72 22.0894 56.72ZM44.7471 50L39.2431 32.08H39.1151C39.1365 32.5067 39.1685 33.1467 39.2111 34C39.2538 34.8533 39.2965 35.7707 39.3391 36.752C39.3818 37.712 39.4031 38.5867 39.4031 39.376V50H35.0831V27.152H41.6751L47.0831 44.624H47.1791L52.9071 27.152H59.4991V50H54.9871V39.184C54.9871 38.4587 54.9978 37.6267 55.0191 36.688C55.0618 35.7493 55.0938 34.864 55.1151 34.032C55.1578 33.1787 55.1898 32.5387 55.2111 32.112H55.0831L49.1951 50H44.7471Z" fill="black"/>
</g>
<defs>
<clipPath id="clip0_7_2">
<rect width="80" height="80" fill="white"/>
</clipPath>
</defs>
</svg>
